<?xml version="1.0" encoding="UTF-8"?>
<svg version="1.1" viewBox="0 200 600 200" fill="#409EFF" class="icon" xmlns="http://www.w3.org/2000/svg" width="600" height="600">
  <path d="M0,0 L18,0 L24,3 L27,8 L27,17 L24,22 L17,25 L0,25 L-6,22 L-10,14 L-9,7 L-4,2 Z " transform="translate(101,238)"/>
  <path d="M0,0 L101,0 L114,3 L123,9 L129,16 L133,27 L134,32 L134,58 L131,76 L126,91 L121,101 L112,111 L103,117 L93,121 L83,123 L-38,123 L-44,119 L-46,115 L-46,106 L-41,100 L-35,98 L-4,97 L0,95 L3,86 L0,78 L-6,75 L-62,74 L-68,70 L-71,64 L-70,56 L-66,51 L-61,49 L16,48 L21,44 L22,42 L22,32 L17,27 L15,26 L0,25 L-6,22 L-9,17 L-9,8 L-6,3 Z M67,25 L65,32 L55,95 L55,98 L81,98 L91,93 L97,84 L101,74 L104,61 L105,53 L105,36 L102,30 L96,26 L92,25 Z " transform="translate(150,238)"/>
  <path d="M0,0 L36,0 L57,62 L60,68 L76,42 L91,18 L102,0 L138,0 L135,25 L121,123 L96,123 L96,115 L106,42 L94,61 L78,86 L67,103 L61,112 L46,113 L42,103 L23,50 L21,45 L21,42 L19,42 L18,57 L9,121 L8,123 L-17,123 L-15,104 L-1,4 Z " transform="translate(309,242)"/>
  <path d="M0,0 L55,0 L69,3 L79,8 L84,13 L88,18 L91,26 L92,36 L90,50 L86,62 L80,71 L73,78 L59,85 L43,88 L13,88 L11,106 L8,123 L-17,123 L-16,110 L-1,3 Z M23,23 L21,27 L16,65 L41,65 L51,63 L57,60 L63,53 L65,46 L65,33 L60,27 L52,24 L44,23 Z " transform="translate(469,242)"/>
  <path d="M0,0 L8,1 L13,5 L15,9 L15,16 L11,22 L6,25 L-1,25 L-7,21 L-10,15 L-9,7 L-4,2 Z " transform="translate(52,287)"/>
</svg>
